:SAMPLES-PER-SECOND 30
:FULLY-SPECIFIED
:DEGREES
158
root  67.4589 40.0957 -2.0923 -102.81 -87.539 103.934
RightUpLeg  -9.55489 -12.8606 -13.147
RightLeg  15.2952 1.6458 0.426139
RightFoot  -3.73603 -0.375564 5.28656
RightToes  -1.16417e-010 0 -3.6325e-017
Spine  13.1278 -1.31631 -2.79019
Spine1  7.85832 -1.60369 -0.582581
HEad  -21.1131 1.64961 -0.653672
LeftShoulder1  9.59018 -13.7703 -48.4696
LeftArm  -6.97706 39.5445 -27.8828
LeftForeArm  27.8604 -5.49735 -5.5194
LeftHand  -0.244104 0.0205437 5.32207
RightShoulder  5.5651 9.5488 36.6388
RightArm  -15.2537 -34.434 33.1022
RightForeArm  -24.1848 6.67628 6.49564
RightHand  -2.48332 5.06046 -27.3682
LeftUpLeg  -4.03551 6.33222 1.29815
LeftLeg  7.46333 17.6355 -4.30856
LeftFoot  -4.16256 0.043223 -0.258301
LeftToes  -2.09216e-011 1.96776e-011 -5.83545e-012
159
root  67.3166 40.1057 -2.18801 -99.9893 -87.2705 101.085
RightUpLeg  -7.90606 -14.1764 -13.9208
RightLeg  12.4115 -0.454506 0.302743
RightFoot  -2.43725 -0.443981 5.45687
RightToes  -1.16417e-010 0 -3.6325e-017
Spine  11.8702 -1.34678 -2.65207
Spine1  7.94802 -1.53212 -0.820146
HEad  -19.5593 1.63892 -0.888482
LeftShoulder1  9.44992 -13.5479 -48.3816
LeftArm  -6.4042 39.9475 -27.4275
LeftForeArm  29.7358 -4.36507 -5.52573
LeftHand  -0.244104 0.0205437 5.32207
RightShoulder  5.34348 9.22534 35.9986
RightArm  -16.0169 -37.8919 33.882
RightForeArm  -23.5983 6.41857 6.16944
RightHand  -2.2843 4.47157 -26.6984
LeftUpLeg  -3.47955 6.11023 1.09551
LeftLeg  6.80922 17.7119 -4.36792
LeftFoot  -4.016 0.0537505 -0.419874
LeftToes  -2.09216e-011 1.96776e-011 -5.83545e-012
160
root  67.1854 40.1017 -2.34802 -98.9034 -86.8737 99.9498
RightUpLeg  -6.44627 -14.7167 -14.7347
RightLeg  10.0421 -1.38913 0.931973
RightFoot  -0.732772 -0.615319 6.56891
RightToes  -1.16417e-010 0 -3.6325e-017
Spine  10.6754 -1.32993 -2.47556
Spine1  8.13885 -1.36751 -1.20741
HEad  -18.2859 1.60199 -1.15661
LeftShoulder1  9.46305 -13.4864 -48.6253
LeftArm  -5.48237 39.3259 -26.0846
LeftForeArm  31.6043 -4.43083 -5.68586
LeftHand  -0.244104 0.0205437 5.32207
RightShoulder  5.26312 9.12589 35.699
RightArm  -17.5126 -39.933 34.9944
RightForeArm  -25.2015 6.00636 5.78712
RightHand  -2.10145 3.7545 -26.4896
LeftUpLeg  -2.99779 5.87187 0.87676
LeftLeg  6.33846 17.8666 -4.36191
LeftFoot  -3.92383 0.0710829 -0.685984
LeftToes  -2.09216e-011 1.96776e-011 -5.83545e-012
161
root  67.0822 40.1243 -2.55473 -99.8144 -86.6137 100.766
RightUpLeg  -5.33902 -14.5859 -15.1457
RightLeg  8.46589 -1.92943 1.62131
RightFoot  0.202775 -0.719334 7.12685
RightToes  -1.16417e-010 0 -3.6325e-017
Spine  9.72647 -1.37412 -1.94776
Spine1  8.30242 -1.22486 -1.64512
HEad  -17.1555 1.93725 -1.35259
LeftShoulder1  9.53055 -13.4491 -49.0821
LeftArm  -4.46113 37.7088 -24.4043
LeftForeArm  32.8465 -5.4747 -5.9974
LeftHand  -0.244104 0.0205437 5.32207
RightShoulder  5.305 9.1751 35.8633
RightArm  -18.9787 -40.2578 35.9132
RightForeArm  -26.9193 5.50682 5.4152
RightHand  -2.19992 3.97633 -27.0511
LeftUpLeg  -2.44507 5.69225 0.87548
LeftLeg  5.71512 18.0509 -4.36651
LeftFoot  -3.64981 0.0848387 -0.892114
LeftToes  -2.09216e-011 1.96776e-011 -5.83545e-012
162
root  67.0285 40.1779 -2.78775 -104.278 -86.5934 105.088
RightUpLeg  -4.65004 -14.1052 -14.9907
RightLeg  7.51699 -2.43673 2.09808
RightFoot  0.519656 -0.695297 6.72021
RightToes  -1.16417e-010 0 -3.6325e-017
Spine  8.97151 -1.44789 -1.02444
Spine1  8.54536 -1.10925 -2.0215
HEad  -16.35 2.67728 -1.66627
LeftShoulder1  9.62032 -13.3927 -49.7085
LeftArm  -3.78263 34.8235 -23.0195
LeftForeArm  33.4096 -6.49476 -6.32704
LeftHand  -0.244104 0.0205437 5.32207
RightShoulder  5.42272 9.32185 36.2919
RightArm  -19.7416 -38.7476 36.2968
RightForeArm  -26.8217 5.09957 5.1745
RightHand  -2.27001 4.27889 -27.0412
LeftUpLeg  -1.85468 5.605 1.17399
LeftLeg  4.96058 18.3481 -4.31778
LeftFoot  -3.16594 0.093473 -1.01107
LeftToes  -2.09216e-011 1.96776e-011 -5.83545e-012
163
root  67.0375 40.229 -3.03524 -110.45 -86.6501 110.939
RightUpLeg  -4.14175 -13.6281 -14.594
RightLeg  6.99602 -2.70832 2.40164
RightFoot  0.824168 -0.647002 6.11793
RightToes  -1.16417e-010 0 -3.6325e-017
Spine  8.43019 -1.46769 -0.062042
Spine1  9.00094 -1.00354 -2.20112
HEad  -15.8812 3.47895 -2.31532
LeftShoulder1  9.78668 -13.4547 -50.3783
LeftArm  -3.85761 30.6066 -22.331
LeftForeArm  33.6594 -6.86859 -6.48478
LeftHand  -0.244104 0.0205437 5.32207
RightShoulder  5.60954 9.6294 36.7127
RightArm  -19.4738 -35.675 36.2171
RightForeArm  -25.8074 5.09152 5.28592
RightHand  -2.15046 3.99667 -26.4155
LeftUpLeg  -1.24724 5.58215 1.60529
LeftLeg  4.38331 18.6709 -4.15594
LeftFoot  -2.66991 0.102944 -1.13226
LeftToes  -2.09216e-011 1.96776e-011 -5.83545e-012
164
root  67.0995 40.2573 -3.29051 -112.137 -86.6786 112.065
RightUpLeg  -3.54022 -13.4256 -14.3562
RightLeg  6.82966 -2.81406 2.64951
RightFoot  1.08633 -0.61631 5.72281
RightToes  -1.16417e-010 0 -3.6325e-017
Spine  8.30083 -1.48222 0.600297
Spine1  9.38871 -0.996713 -2.0978
HEad  -15.4865 3.95354 -3.14154
LeftShoulder1  10.0466 -13.722 -50.9083
LeftArm  -4.53555 25.486 -22.1641
LeftForeArm  33.5535 -7.25863 -6.4886
LeftHand  -0.244104 0.0205437 5.32207
RightShoulder  5.87246 10.0955 37.1668
RightArm  -18.082 -31.4989 35.7218
RightForeArm  -25.3871 5.63537 5.85837
RightHand  -2.10867 3.83305 -26.3579
LeftUpLeg  -0.616802 5.58506 1.98514
LeftLeg  4.09682 18.6814 -3.97774
LeftFoot  -2.27173 0.11594 -1.29207
LeftToes  -2.09216e-011 1.96776e-011 -5.83545e-012
